<?xml version="1.0" encoding="UTF-8"?>
<svg width="960" height="640" viewBox="0 0 960 640" fill="none" xmlns="http://www.w3.org/2000/svg">
  <rect width="960" height="640" rx="32" fill="#5fb67a"/>
  <rect x="28" y="28" width="904" height="584" rx="24" fill="#4aa267" stroke="#f1f5f9" stroke-width="6"/>
  <line x1="480" y1="28" x2="480" y2="612" stroke="#f1f5f9" stroke-width="6"/>
  <circle cx="480" cy="320" r="92" stroke="#f1f5f9" stroke-width="6"/>
  <circle cx="480" cy="320" r="8" fill="#f1f5f9"/>
  <rect x="28" y="170" width="160" height="300" rx="8" stroke="#f1f5f9" stroke-width="6"/>
  <rect x="772" y="170" width="160" height="300" rx="8" stroke="#f1f5f9" stroke-width="6"/>
  <rect x="28" y="232" width="80" height="176" rx="8" stroke="#f1f5f9" stroke-width="6"/>
  <rect x="852" y="232" width="80" height="176" rx="8" stroke="#f1f5f9" stroke-width="6"/>
  <rect x="28" y="292" width="26" height="56" rx="6" fill="#0f172a" opacity="0.15"/>
  <rect x="906" y="292" width="26" height="56" rx="6" fill="#0f172a" opacity="0.15"/>
  <circle cx="192" cy="320" r="6" fill="#f1f5f9"/>
  <circle cx="768" cy="320" r="6" fill="#f1f5f9"/>
  <path d="M72 82H888" stroke="#7ad19a" stroke-width="10" opacity="0.35"/>
  <path d="M72 558H888" stroke="#7ad19a" stroke-width="10" opacity="0.35"/>
</svg>
